<svg xmlns="http://www.w3.org/2000/svg" viewBox="0 0 22.43 32.05"><defs><style>.cls-1{font-size:29.79px;fill:#163040;font-family:ClashDisplay-Bold, Clash Display;font-weight:700;}.cls-2{fill:none;stroke:#fff;stroke-miterlimit:10;stroke-width:0.5px;}</style></defs><title>ICONRecurso 4</title><g id="Capa_2" data-name="Capa 2"><g id="LIGO"><text class="cls-1" transform="translate(1.31 24.87)">R</text><path d="M11.83,12.47a.47.47,0,0,0-.17,0l-.4-.91h0a.07.07,0,0,0-.07-.06h-.37a.08.08,0,0,0-.07.07.07.07,0,0,0,.07.07h.25s0,0,0,0l.13.31-1,0-.11-.21h0a.07.07,0,0,0,0-.14H9.75a.07.07,0,0,0-.07.06.08.08,0,0,0,.07.08h.09l.19.36-.18.39a.47.47,0,0,0-.17,0,.66.66,0,0,0,0,1.32.65.65,0,0,0,.63-.5h.52l.49-1.08.17.37a.67.67,0,0,0-.29.53.64.64,0,1,0,.65-.64Zm-1.67-.13.4.73h-.25A.65.65,0,0,0,10,12.6ZM10,12.8a.4.4,0,0,1,.14.27H9.83Zm-.29.77a.44.44,0,0,1-.42-.45.43.43,0,0,1,.44-.43h.08l-.26.57h.57A.43.43,0,0,1,9.66,13.57ZM10.73,13l-.42-.77h.77Zm1.08.62a.45.45,0,0,1-.42-.45.44.44,0,0,1,.17-.34l.16.36a.1.1,0,0,0,.09.06h0a.11.11,0,0,0,.05-.14l-.16-.36h.08a.45.45,0,0,1,.42.45A.44.44,0,0,1,11.81,13.57Z"/><path class="cls-2" d="M1.59,14.12l1.81-.88.18.61L5,13.61,5,14.76l2.43-.87L9,15l.5-1.44,1.93-.19L9.74,11.77l1.9-2-.8-.7.06-1.79L12.44,4.6a12.34,12.34,0,0,1-2.39,2A12,12,0,0,1,7.93,7.67L7.07,9.2l-.83,1a2.1,2.1,0,0,1-1,.62,1.5,1.5,0,0,1-.39.08l-1,1.21Z"/></g></g></svg>