<svg xmlns="http://www.w3.org/2000/svg" viewBox="0 0 207.63 120.75"><defs><style>.cls-1,.cls-5,.cls-9{stroke:#000;}.cls-1,.cls-2,.cls-3,.cls-4,.cls-5,.cls-6,.cls-9{stroke-miterlimit:10;}.cls-1,.cls-2,.cls-3{stroke-width:2px;}.cls-2,.cls-4,.cls-5{fill:none;}.cls-2,.cls-3,.cls-4,.cls-6{stroke:#fff;}.cls-3,.cls-6{fill:#fff;}.cls-7{font-size:27.1px;}.cls-7,.cls-8{font-family:ClashDisplay-Bold, Clash Display;font-weight:700;}.cls-8{font-size:29.79px;}.cls-9{stroke-width:0.2px;}</style></defs><title>negroRecurso 6</title><g id="Capa_2" data-name="Capa 2"><g id="bicicleta"><path class="cls-1" d="M119.58,15q5.08,14,10.18,28L165.4,78.58l40.47,16L191.1,109.89,147.32,118l-16.54-5.1L99,119.56A6.68,6.68,0,0,0,95.4,115a6.5,6.5,0,0,0-6.62.76l-7.64-8.4-27.23,6.88q1.4-5.1,2.8-10.18l-11,5.34c-.93-1.87-1.87-3.73-2.8-5.6l-29.78,4.07,8.65-9.41,12-4.33,21.63-19.6,5.86-9.16,7.13-2,6.1-7.64,2.55-7.89,25.45-14.51Z"/><path class="cls-2" d="M137.78,63.56q.19,7.13.38,14.26l14.45.13Z"/><path class="cls-3" d="M41.69,93.73,53.52,88c.39,1.31.77,2.63,1.15,3.94l9-1.52.51,7.51,15.9-5.73,9.8,7.51q1.67-4.71,3.31-9.42L105.83,89,95,78.33l12.47-12.86-5.22-4.58q.2-5.85.38-11.71l10.06-17.82A78.72,78.72,0,0,1,97.05,44.47a78.06,78.06,0,0,1-13.87,7l-5.6,10.06q-2.74,3.3-5.47,6.62a14.46,14.46,0,0,1-6.37,4.07,13.27,13.27,0,0,1-2.54.51l-6.37,7.89Z"/><path class="cls-4" d="M147.87,66.11q-3,1.52-6,3"/><path class="cls-4" d="M137,70.82c-1.15,1.38-6.82,8.09-11.32,12.6a15.55,15.55,0,0,1-3.44,2.67A15.82,15.82,0,0,1,116,88c-5.11.64-8.74,5.37-15.52,11.45a117.67,117.67,0,0,1-14.13,10.82"/><path class="cls-5" d="M95.53,116.89l1.88-1.47"/><path class="cls-4" d="M99.85,108.49l5.22-3.82"/><path class="cls-4" d="M107.49,101.36l5-3.43"/><path class="cls-4" d="M117.41,93.85l5-2.92"/><path class="cls-4" d="M126.32,87.36l5.73-5"/><path class="cls-4" d="M135.36,80.75l4.84-4.33"/><path class="cls-6" d="M144.81,75.52a3.46,3.46,0,0,0,3.57-1.9,2.51,2.51,0,0,0,0-1.53"/><text class="cls-7" transform="matrix(0.71, -0.71, 0.71, 0.71, 16.02, 99.58)">R</text><text class="cls-8" transform="matrix(0.71, -0.71, 0.71, 0.71, 49.98, 69.2)">U</text><text class="cls-8" transform="matrix(0.71, -0.71, 0.71, 0.71, 69.58, 49.31)">T</text><text class="cls-8" transform="matrix(0.71, -0.71, 0.71, 0.71, 87.61, 31.23)">E</text><path d="M41.59,74.16a1.24,1.24,0,1,0-1.76-1.75,1.24,1.24,0,0,0,1.76,1.75ZM40,72.61A.95.95,0,1,1,40,74,.95.95,0,0,1,40,72.61Z"/><path d="M27.65,77.42a1.24,1.24,0,1,0,0-1.76A1.23,1.23,0,0,0,27.65,77.42Zm1.55-1.55a.95.95,0,1,1-1.35,0A1,1,0,0,1,29.2,75.87Z"/><path d="M36.48,79.28a1.24,1.24,0,1,0-1.76,0A1.24,1.24,0,0,0,36.48,79.28Zm-1.55-1.54a.95.95,0,1,1,0,1.34A.95.95,0,0,1,34.93,77.74Z"/><path d="M39.71,65.32a1.24,1.24,0,1,0,0,1.76A1.26,1.26,0,0,0,39.71,65.32Zm-.21,1.55a.95.95,0,1,1,0-1.34A.95.95,0,0,1,39.5,66.87Z"/><path d="M30.88,63.46a1.24,1.24,0,1,0,1.75,0A1.23,1.23,0,0,0,30.88,63.46ZM32.43,65a1,1,0,0,1-1.34,0,1,1,0,1,1,1.34-1.35A1,1,0,0,1,32.43,65Z"/><path d="M25.67,68.68a1.24,1.24,0,1,0,1.75,0A1.25,1.25,0,0,0,25.67,68.68Zm1.55,1.55a1,1,0,0,1-1.35-1.34,1,1,0,0,1,1.35,0A1,1,0,0,1,27.22,70.23Z"/><path class="cls-9" d="M25.76,67.62l-.23.08a.8.8,0,0,0-.17.08,2.08,2.08,0,0,0-1,1.91A2,2,0,0,0,25.09,71a2.07,2.07,0,0,0,3.13-.39A2.44,2.44,0,0,0,28.6,70a3.11,3.11,0,0,1,.45-.8,2.75,2.75,0,0,1,1-1A4.24,4.24,0,0,1,31.33,68l.71-.08a3.59,3.59,0,0,0,1.09-.22,2.65,2.65,0,0,0,.81-.48.28.28,0,0,0,.11-.25c0-.2-.38-.26-.78-.31a3.82,3.82,0,0,0-1.05,0,2.38,2.38,0,0,1-.86,0,2.3,2.3,0,0,1-2-1.72,2.59,2.59,0,0,1,.37-2.08,2.55,2.55,0,0,1,1.67-1.1,2.5,2.5,0,0,1,1.59.31,1.24,1.24,0,0,1,.29.25,2.3,2.3,0,0,0,.4.33c.28.19,1.13.69,1.36.46h0a.25.25,0,0,0,.05-.2,3.14,3.14,0,0,0-1.18-1.61,3.66,3.66,0,0,0-3.14-.58,3.3,3.3,0,0,0-1,.49l-1.16,1.17,0,0a3.84,3.84,0,0,0-.44,1.46,4.24,4.24,0,0,0,0,.62,2.07,2.07,0,0,1-.08.84,2.59,2.59,0,0,1-.56.88A4.23,4.23,0,0,1,25.76,67.62Zm1.84-1.26a2.76,2.76,0,0,0,.58-.93,2.3,2.3,0,0,0,.09-.88,5.94,5.94,0,0,1,0-.61,3.72,3.72,0,0,1,.43-1.4l1.15-1.15a3.26,3.26,0,0,1,1-.46,3.48,3.48,0,0,1,3,.56A3,3,0,0,1,35,63a.13.13,0,0,1,0,.08c-.08.09-.64-.12-1.17-.48a2.22,2.22,0,0,1-.37-.32,2.11,2.11,0,0,0-.33-.26,2.55,2.55,0,0,0-1.68-.33,2.67,2.67,0,0,0-1.77,1.16,2.72,2.72,0,0,0-.39,2.2,2.46,2.46,0,0,0,2.11,1.83,3.3,3.3,0,0,0,.91,0,3.18,3.18,0,0,1,1,0c.19,0,.62.07.65.19s0,.19-.84.56a2.91,2.91,0,0,1-1,.21l-.71.08a4.51,4.51,0,0,0-1.3.24,2.56,2.56,0,0,0-.63.46,5.14,5.14,0,0,0-.45.54,3.29,3.29,0,0,0-.46.83,2.18,2.18,0,0,1-.36.63,1.94,1.94,0,0,1-2.92.37,1.82,1.82,0,0,1-.7-1.24,1.93,1.93,0,0,1,.94-1.77l.14-.06.25-.08A4.47,4.47,0,0,0,27.6,66.36Z"/><path class="cls-9" d="M39.87,62.65a3.59,3.59,0,0,0-2.1.11,2.21,2.21,0,0,0-.46.22,4,4,0,0,1-.5.24,3.84,3.84,0,0,1-2.08.31,4,4,0,0,1-1.37-.61l-.44-.31a1.82,1.82,0,0,0-.68-.38,2.17,2.17,0,0,0-1.21,0h0a2.41,2.41,0,0,0-.71.48A2.23,2.23,0,0,0,29.64,64a2,2,0,0,0,.17,1.19,2.59,2.59,0,0,0,1.87,1.25,2.8,2.8,0,0,0,.83,0,3,3,0,0,1,1.1,0,2.5,2.5,0,0,1,1,.32,5.29,5.29,0,0,1,.9,1c.41.48.62.74.64.77l.09.12a2.42,2.42,0,0,0,.57.58s.63.41.83.22h0c.12-.12,0-.33-.21-.69a8.17,8.17,0,0,1-.66-1.33,3.09,3.09,0,0,1-.32-1.52,2.23,2.23,0,0,1,.74-1.32,2.39,2.39,0,0,1,1.55-.88,2.32,2.32,0,0,1,1.66.7,2.46,2.46,0,0,1,.94,1.47,2.08,2.08,0,0,1,0,.66,6.37,6.37,0,0,0-.08,1.17c0,.52,0,.8.19.85a.2.2,0,0,0,.16,0l.09-.07a3.62,3.62,0,0,0,.7-1.61A3.79,3.79,0,0,0,42,64.41,3.48,3.48,0,0,0,39.87,62.65Zm2,1.83a3.75,3.75,0,0,1,.37,2.27,2.54,2.54,0,0,1-.77,1.6,2,2,0,0,1-.08-.7,5.36,5.36,0,0,1,.07-1.14,2.1,2.1,0,0,0,0-.71,2.64,2.64,0,0,0-1-1.56,2.54,2.54,0,0,0-1.77-.73,2.33,2.33,0,0,0-1.51.77l-.14.15a2.34,2.34,0,0,0-.77,1.4,3.17,3.17,0,0,0,.32,1.59,9.9,9.9,0,0,0,.67,1.35c.13.22.28.47.23.52h0c-.06.06-.46-.12-.64-.24a2.55,2.55,0,0,1-.53-.55l-.1-.12-.64-.78a5.09,5.09,0,0,0-.94-1,2.5,2.5,0,0,0-1-.34,3.3,3.3,0,0,0-1.14,0,2,2,0,0,1-.78,0,2.39,2.39,0,0,1-1.77-1.16,1.82,1.82,0,0,1-.15-1.1,2,2,0,0,1,.63-1.19,2.23,2.23,0,0,1,.65-.45,2,2,0,0,1,1.13,0,1.86,1.86,0,0,1,.63.35,4.41,4.41,0,0,0,.46.32,4,4,0,0,0,1.41.63,3.81,3.81,0,0,0,2.16-.32,2.68,2.68,0,0,0,.53-.25,2,2,0,0,1,.43-.2,3.47,3.47,0,0,1,2-.11A3.34,3.34,0,0,1,41.86,64.48Z"/><path class="cls-9" d="M25.25,72.94a2.64,2.64,0,0,1,.71.74,4,4,0,0,1,.41,2v.06c0,.23,0,.35,0,.44a1.15,1.15,0,0,0,0,.38,2.41,2.41,0,0,0,.92,1.67,2.15,2.15,0,0,0,2.19.21,1.9,1.9,0,0,0,.42-.31,2.41,2.41,0,0,0,.53-2.29,1.48,1.48,0,0,0-.45-.69,1.84,1.84,0,0,1-.51-.69,3.9,3.9,0,0,1,0-2.65,4,4,0,0,1,.25-.57,3.63,3.63,0,0,0,.34-.94c.07-.3.27-1.3,0-1.42s-.79.71-1,1.1a3.61,3.61,0,0,0-.16.42,1,1,0,0,1-.07.21A2.42,2.42,0,0,1,27,72a2.6,2.6,0,0,1-2.18-.73,2.48,2.48,0,0,1-.75-1.51,2.45,2.45,0,0,1,.36-1.5,2.73,2.73,0,0,1,1.08-1,2.69,2.69,0,0,1,.65-.24h0c1-.59,1.07-.8,1-.94-.11-.3-1.19-.08-1.66.06a4.47,4.47,0,0,0-.92.39s-.2.12-.39.26a3.72,3.72,0,0,0-1.34,3.16,5,5,0,0,0,1.95,2.65ZM23,69.9a3.32,3.32,0,0,1,1-2.76,3.15,3.15,0,0,1,.28-.25,3.88,3.88,0,0,1,1.26-.63,2.52,2.52,0,0,1,1.49-.14s0,.15-1,.75a3.09,3.09,0,0,0-.66.25,2.8,2.8,0,0,0-1.14,1,2.54,2.54,0,0,0-.38,1.59,2.6,2.6,0,0,0,.79,1.61,2.72,2.72,0,0,0,2.3.77A2.57,2.57,0,0,0,29,70.65c0-.08.05-.15.07-.22s.07-.21.15-.39c.29-.61.68-1.07.79-1a2.23,2.23,0,0,1-.07,1.25,3.44,3.44,0,0,1-.33.9,4.27,4.27,0,0,0-.26.59,4,4,0,0,0,0,2.76,2,2,0,0,0,.55.74,1.27,1.27,0,0,1,.41.62,2.13,2.13,0,0,1-.88,2.43,2,2,0,0,1-2-.2,2.22,2.22,0,0,1-.86-1.57,1.27,1.27,0,0,1,0-.34,3.52,3.52,0,0,0,0-.46v-.06a3.91,3.91,0,0,0-.43-2.06,2.8,2.8,0,0,0-.74-.79l-.41-.35A5,5,0,0,1,23,69.9Z"/><path class="cls-9" d="M41,67.22a2.54,2.54,0,0,0,0-1.37,2.46,2.46,0,0,0-1.47-1.74,2.25,2.25,0,0,0-1.84.33,2.33,2.33,0,0,0-.91,1.88h0A4.92,4.92,0,0,0,37.5,68a3.77,3.77,0,0,1,.26.41A3.09,3.09,0,0,1,38.15,70a1.52,1.52,0,0,1-.27.83,5.87,5.87,0,0,0-.4.85c-.32.85-.56,2.2-.24,2.32.16.07.4-.19.84-.92a3.83,3.83,0,0,0,.34-.69,1.4,1.4,0,0,1,.15-.33,2.51,2.51,0,0,1,2.11-1.15A2.62,2.62,0,0,1,42.75,72a2.54,2.54,0,0,1,.07,2.5,2.7,2.7,0,0,1-1.23,1.15,2.87,2.87,0,0,1-.62.22h0l-1,.92.13,0a3.27,3.27,0,0,0,1.49,0,3.5,3.5,0,0,0,1.73-1,3.61,3.61,0,0,0,1-1.72,3.53,3.53,0,0,0-.55-2.85,2.72,2.72,0,0,0-.65-.59,6.14,6.14,0,0,1-1-.87A4,4,0,0,1,41,68.49,2,2,0,0,1,41,67.22Zm1,2.72a6.5,6.5,0,0,0,1,.89,2.18,2.18,0,0,1,.62.56,3.34,3.34,0,0,1,.53,2.72,3.49,3.49,0,0,1-2.59,2.58,3.34,3.34,0,0,1-1.3,0L41,76a2.8,2.8,0,0,0,.63-.23A2.89,2.89,0,0,0,43,74.55a2.65,2.65,0,0,0-.07-2.64,2.75,2.75,0,0,0-2.2-1.19,2.66,2.66,0,0,0-2.23,1.21,2.31,2.31,0,0,0-.17.36A3.94,3.94,0,0,1,38,73c-.5.83-.64.86-.66.86a3.83,3.83,0,0,1,.33-2.14,5.12,5.12,0,0,1,.39-.83,1.78,1.78,0,0,0,.29-.9,3.33,3.33,0,0,0-.41-1.58,4.19,4.19,0,0,0-.27-.43,3.35,3.35,0,0,1-.3-.46,4.8,4.8,0,0,1-.45-1.18,2.2,2.2,0,0,1,.86-1.74,2.06,2.06,0,0,1,1.7-.31,2.32,2.32,0,0,1,1.38,1.64,2.48,2.48,0,0,1,0,1.3,2.21,2.21,0,0,0,0,1.36A4.19,4.19,0,0,0,42,69.94Z"/><path class="cls-9" d="M33.34,79.57a1.4,1.4,0,0,1,.43.31,1.59,1.59,0,0,0,.49.34,2.54,2.54,0,0,0,2.3.13,2.37,2.37,0,0,0,.57-.41,2.21,2.21,0,0,0,.41-.6,2.24,2.24,0,0,0-.6-2.45,2.7,2.7,0,0,0-1.29-.5,6,6,0,0,0-1.56-.13,2.32,2.32,0,0,1-1.22-.2,3.53,3.53,0,0,1-1.07-.88,4.43,4.43,0,0,1-.45-.6,3.14,3.14,0,0,0-.46-.61,3.57,3.57,0,0,0-1.18-.82l-.11-.05v.11A2.18,2.18,0,0,0,30,74.63a2.51,2.51,0,0,0,.21.23l.16.16a2.41,2.41,0,0,1-1.24,3.92,2.56,2.56,0,0,1-1.9-.2A2.46,2.46,0,0,1,26,77.15a1.75,1.75,0,0,1,.05-.73,2.71,2.71,0,0,0,.07-1,3.29,3.29,0,0,0-.31-1l-.05-.1-.07.09a3.65,3.65,0,0,0-.78,3,3.45,3.45,0,0,0,1.34,2.11,3.77,3.77,0,0,0,3.29.56,2.06,2.06,0,0,0,.65-.31,1.75,1.75,0,0,1,.71-.32A3.44,3.44,0,0,1,33.34,79.57Zm-3.24,0a2.17,2.17,0,0,1-.61.29,3.62,3.62,0,0,1-3.16-.54,3.33,3.33,0,0,1-1.29-2,3.52,3.52,0,0,1,.68-2.76,3.28,3.28,0,0,1,.24.85,2.51,2.51,0,0,1-.06,1,2.23,2.23,0,0,0-.06.79,2.63,2.63,0,0,0,1.34,1.7,2.68,2.68,0,0,0,3.94-2.42,2.65,2.65,0,0,0-.62-1.53l-.17-.17a2.08,2.08,0,0,1-.2-.21,2.05,2.05,0,0,1-.38-1.21,3.39,3.39,0,0,1,1,.74,3.43,3.43,0,0,1,.45.59,4.42,4.42,0,0,0,.46.62,3.78,3.78,0,0,0,1.12.91,2.37,2.37,0,0,0,1.28.22,6.05,6.05,0,0,1,1.53.12,2.5,2.5,0,0,1,1.23.47,2.06,2.06,0,0,1,.55,2.28,1.89,1.89,0,0,1-.91.94,2.4,2.4,0,0,1-2.17-.13,1.58,1.58,0,0,1-.45-.32,1.65,1.65,0,0,0-.46-.33,3.59,3.59,0,0,0-2.56-.21A1.81,1.81,0,0,0,30.1,79.57Z"/><path class="cls-9" d="M40.79,75.59a4.42,4.42,0,0,0,1.34-.76,2.28,2.28,0,0,0,.74-1.57A2.23,2.23,0,0,0,41,71.14a2.49,2.49,0,0,0-2.06.92,2.32,2.32,0,0,0-.51.94,2.08,2.08,0,0,1-.52.94,3.35,3.35,0,0,1-1.58.9,2.72,2.72,0,0,1-.84.1,3.64,3.64,0,0,0-.86.08,4.38,4.38,0,0,0-1.51.65l-.09.06.09.06a2,2,0,0,0,1.06.34,1.69,1.69,0,0,0,.54-.09l.15,0a3.06,3.06,0,0,1,1.57.13,2.6,2.6,0,0,1,1.61,2.57,2.69,2.69,0,0,1-1.4,2,2.6,2.6,0,0,1-2.51-.16,2.69,2.69,0,0,1-.72-.67v0l-1.3-.22,0,.12a3.69,3.69,0,0,0,1.89,2.11,3.64,3.64,0,0,0,2.9,0,3.49,3.49,0,0,0,1.13-.77A3.32,3.32,0,0,0,39,79.56a3.6,3.6,0,0,0,.08-.56,9.28,9.28,0,0,1,.16-1.15c.07-.38.16-.77.26-1.14l1.26-1.1Zm-1.42,1v0c-.1.38-.19.78-.26,1.17A10.18,10.18,0,0,0,38.93,79a4.11,4.11,0,0,1-.08.54,3.43,3.43,0,0,1-2,2.24,3.44,3.44,0,0,1-4.55-2l1,.17a2.73,2.73,0,0,0,.75.69,2.69,2.69,0,0,0,4.13-1.94A2.74,2.74,0,0,0,36.5,76a3.08,3.08,0,0,0-1.66-.13h0l-.15,0a1.5,1.5,0,0,1-.5.08,1.81,1.81,0,0,1-.88-.25,4.21,4.21,0,0,1,1.36-.56,3.45,3.45,0,0,1,.84-.08,3.31,3.31,0,0,0,.87-.1A3.58,3.58,0,0,0,38,74a2.39,2.39,0,0,0,.56-1,2.18,2.18,0,0,1,.48-.89A2.37,2.37,0,0,1,41,71.28a2,2,0,0,1,1,3.44,4.3,4.3,0,0,1-1.29.74l-.06,0h0Z"/><path d="M177.88,74.65a2.67,2.67,0,0,0-.73-.17l-.31-4.23v0a.31.31,0,0,0-.18-.36l-1.48-.58h0a.3.3,0,0,0-.38.18.29.29,0,0,0,.17.38l1,.39a.57.57,0,0,0,0,.13l.11,1.42L172,70.22l-.15-1,0,0a.3.3,0,0,0,.21-.56l-1.36-.52a.29.29,0,0,0-.38.18.29.29,0,0,0,.16.38l.37.14h0l.27,1.72-1.28,1.32a2.89,2.89,0,0,0-.67-.37,2.82,2.82,0,0,0-2,5.28,2.75,2.75,0,0,0,3.27-1.1l2.08.79,3.57-3.68.13,1.74a2.83,2.83,0,0,0-1.93,1.75,2.74,2.74,0,1,0,3.56-1.66Zm-6.56-3,.55,3.55-1-.39a2.88,2.88,0,0,0-.37-2.3Zm-1.51,1.54a1.91,1.91,0,0,1,.19,1.29L169,74.14Zm-2.29,2.7a1.89,1.89,0,0,1,1.34-3.54,2.15,2.15,0,0,1,.34.17l-1.88,1.94,2.28.86A1.84,1.84,0,0,1,167.52,75.94Zm5.23-1-.58-3.71,3.06,1.16Zm3.46,4.07a1.88,1.88,0,0,1-1.05-2.43,1.9,1.9,0,0,1,1.16-1.13l.12,1.69a.46.46,0,0,0,.29.4.44.44,0,0,0,.2,0,.47.47,0,0,0,.42-.5l-.13-1.68a1.32,1.32,0,0,1,.33.08,1.9,1.9,0,0,1-1.34,3.55Z"/></g></g></svg>